<svg xmlns="http://www.w3.org/2000/svg" viewBox="0 0 36 35.96"><defs><style>.cls-1{fill:#fff;}</style></defs><title>shopping-custom</title><g id="Layer_2" data-name="Layer 2"><g id="Layer_1-2" data-name="Layer 1"><path class="cls-1" d="M14.87,15.62a3.47,3.47,0,0,0-.76,1.12l-2.72,6a1.15,1.15,0,0,0,1.56,1.56l6-2.68a4.26,4.26,0,0,0,1.12-.76L34.89,6.38a3.69,3.69,0,0,0,0-5.28,3.69,3.69,0,0,0-5.28,0Z"/><path class="cls-1" d="M31.41,20.17a2.23,2.23,0,0,0-2.24,2.24v6.87a2.23,2.23,0,0,1-2.24,2.24H6.67a2.23,2.23,0,0,1-2.24-2.24V9A2.23,2.23,0,0,1,6.67,6.74h6.59a2.24,2.24,0,0,0,0-4.48H6.67A6.75,6.75,0,0,0,0,9v20.3A6.69,6.69,0,0,0,6.67,36H27a6.69,6.69,0,0,0,6.67-6.67V22.41A2.23,2.23,0,0,0,31.41,20.17Z"/></g></g></svg>