<?xml version="1.0" encoding="utf-8"?>
<!-- Generator: Adobe Illustrator 21.0.0, SVG Export Plug-In . SVG Version: 6.00 Build 0)  -->
<svg version="1.1" id="Layer_1" xmlns="http://www.w3.org/2000/svg" xmlns:xlink="http://www.w3.org/1999/xlink" x="0px" y="0px"
	 viewBox="0 0 49 45.8" style="enable-background:new 0 0 49 45.8;" xml:space="preserve">
<style type="text/css">
	.st0{fill:#E69000;}
</style>
<title>add-shopping-icon</title>
<g id="Layer_2">
	<g id="Layer_1-2">
		<path class="st0" d="M43.8,18H29.8V4.8c0.1-2.6-1.9-4.8-4.5-4.9c-0.2,0-0.3,0-0.5,0c-2.8-0.1-5.3,2-5.5,4.8V18H5.2
			c0,0-5.2,0-5.2,4.9s5.2,5,5.2,5h14V41c0,2.7,2.2,4.9,4.9,4.9c0.1,0,0.2,0,0.3,0c2.8,0.2,5.1-1.9,5.3-4.7c0-0.1,0-0.1,0-0.2V27.9
			h14.1c0,0,5.2,0.1,5.2-4.7S43.8,18,43.8,18z"/>
	</g>
</g>
</svg>
