<svg xmlns="http://www.w3.org/2000/svg" viewBox="0 0 22 24"><title>icon_calendar</title><g id="Layer_2" data-name="Layer 2"><g id="Layer_1-2" data-name="Layer 1"><path d="M17,2.13h-.22V1.27a1.25,1.25,0,1,0-2.5,0v.86H7.71V1.27a1.25,1.25,0,1,0-2.5,0v.86H5A5.06,5.06,0,0,0,0,7.23V18.91A5.06,5.06,0,0,0,5,24H17a5.06,5.06,0,0,0,5-5.09V7.23A5.08,5.08,0,0,0,17,2.13Zm0,19.32H5a2.53,2.53,0,0,1-2.5-2.55V10.73h17v8.18A2.58,2.58,0,0,1,17,21.45Z" style="fill:#e69000"/><path d="M16.26,16.46H5.71a1.27,1.27,0,0,0,0,2.55H16.23a1.26,1.26,0,0,0,1.25-1.27A1.24,1.24,0,0,0,16.26,16.46Z" style="fill:#e69000"/><path d="M7.49,15.41h7a1.27,1.27,0,0,0,0-2.55h-7a1.26,1.26,0,0,0-1.25,1.27A1.24,1.24,0,0,0,7.49,15.41Z" style="fill:#e69000"/></g></g></svg>