<!-- Generated by IcoMoon.io -->
<svg version="1.1" xmlns="http://www.w3.org/2000/svg" width="800" height="1024" viewBox="0 0 800 1024">
<title></title>
<g id="icomoon-ignore">
</g>
<path fill="#b5396d" d="M667.429 278.857c0-50.286-43.429-91.429-93.714-89.143-20.571 0-41.143 6.857-57.143 20.571-34.286-29.714-84.571-29.714-118.857 0-36.571-34.286-93.714-32-130.286 4.571s-32 93.714 4.571 130.286c9.143 9.143 18.286 13.714 29.714 18.286v141.714h308.571v-141.714c34.286-13.714 57.143-48 57.143-84.571z"></path>
<path fill="#b5396d" d="M304 550.857h308.571v45.714h-308.571v-45.714z"></path>
<path fill="#b5396d" d="M96 0c-52.571 0-96 43.429-96 96v704c0 52.571 43.429 96 96 96h262.857v125.714l96-57.143 96 57.143v-125.714h201.143v-139.429h48v-756.571h-704zM697.143 843.429h-146.286v-38.857h-192v38.857h-262.857c-22.857 0-43.429-18.286-43.429-43.429 0-22.857 18.286-43.429 43.429-43.429h601.143v86.857zM747.429 706.286h-580.571v-653.714h578.286l2.286 653.714z"></path>
</svg>
