<!-- Generated by IcoMoon.io -->
<svg version="1.1" xmlns="http://www.w3.org/2000/svg" width="1535" height="1024" viewBox="0 0 1535 1024">
<title></title>
<g id="icomoon-ignore">
</g>
<path fill="#b5396d" d="M1365.333 169.344l169.344-169.344h-1534.677l169.344 169.344-169.344 171.99 169.344 169.344-169.344 171.99 169.344 169.344-169.344 171.99h1534.677l-169.344-169.344 169.344-169.344-169.344-169.344 169.344-169.344-169.344-177.282zM534.491 280.475c47.628-47.628 121.716-47.628 169.344 0s47.628 121.716 0 169.344c-47.628 47.628-121.716 47.628-169.344 0-44.982-47.628-44.982-124.362 0-169.344zM1000.186 743.525c-47.628 47.628-121.716 47.628-169.344 0s-47.628-121.716 0-169.344c47.628-47.628 121.716-47.628 169.344 0 44.982 47.628 44.982 121.716 0 169.344zM534.491 785.86l-42.336-42.336 508.031-505.385 42.336 42.336-508.031 505.385z"></path>
</svg>
