<!-- Generated by IcoMoon.io -->
<svg version="1.1" xmlns="http://www.w3.org/2000/svg" width="1289" height="1024" viewBox="0 0 1289 1024">
<title></title>
<g id="icomoon-ignore">
</g>
<path fill="#b5396d" d="M899.952 0c-162.964 9.729-279.715 141.074-364.846 233.501l-7.297-9.729c-12.162-17.026-38.917-21.891-55.943-9.729l-330.793 233.501c-7.297 4.865-14.594 14.594-17.026 24.323l-124.048 501.055c-4.865 21.891 7.297 43.781 29.188 48.646 2.432 0 7.297 0 9.729 0h158.1c17.026 0 34.052-12.162 38.917-29.188l92.428-316.2 12.162 4.865c-12.162 29.188-17.026 58.375-19.458 87.563 0 46.214 17.026 94.86 58.375 150.803 12.162 19.458 36.485 24.323 55.943 12.162s24.323-36.485 12.162-55.943c0-2.432-2.432-2.432-2.432-4.865-36.485-48.646-43.781-75.401-43.781-102.157 2.432-24.323 7.297-48.646 17.026-70.537 29.188 7.297 60.808 4.865 92.428-2.432 36.485-12.162 68.105-31.62 92.428-60.808 34.052-41.349 65.672-85.131 92.428-133.777 9.729-14.594 7.297-31.62-2.432-46.214l-60.808-85.131c46.214-43.781 89.995-92.428 131.344-128.912 51.078-46.214 102.157-75.401 150.803-75.401h255.392c21.891 0 41.349-19.458 41.349-41.349v0-82.698c0-21.891-19.458-41.349-41.349-41.349 0 0 0 0 0 0h-269.986zM1150.48 226.204c-12.162 0-24.323 7.297-31.62 17.026-24.323 34.052-46.214 68.105-65.672 104.589-21.891 34.052-34.052 75.401-36.485 116.751 0 75.401 60.808 136.209 136.209 136.209s136.209-63.24 136.209-138.641c-2.432-41.349-14.594-80.266-36.485-114.318-19.458-36.485-41.349-70.537-65.672-104.589-7.297-12.162-21.891-19.458-36.485-17.026zM484.029 304.038l12.162 17.026 41.349 68.105c4.865 7.297 9.729 12.162 17.026 14.594l55.943 77.834c-19.458 34.052-43.781 68.105-68.105 99.724-12.162 17.026-31.62 31.62-51.078 36.485-29.188 7.297-82.698-7.297-182.423-29.188-21.891-4.865-41.349 7.297-48.646 26.755l-92.428 325.929h-75.401l107.021-435.382 284.58-201.881zM1152.912 342.955c9.729 14.594 19.458 26.755 26.755 41.349 14.594 24.323 24.323 51.078 26.755 77.834 0 29.188-24.323 53.511-53.511 53.511s-53.511-24.323-53.511-53.511c4.865-26.755 14.594-53.511 26.755-77.834 7.297-14.594 17.026-26.755 26.755-41.349v0z"></path>
</svg>
