<!-- Generated by IcoMoon.io -->
<svg version="1.1" xmlns="http://www.w3.org/2000/svg" width="1607" height="1024" viewBox="0 0 1607 1024">
<title></title>
<g id="icomoon-ignore">
</g>
<path fill="#b5396d" d="M1607.291 137.397c0 46.663-36.294 82.957-82.957 82.957h-1052.516c-46.663 0-82.957-38.886-82.957-82.957v0c0-46.663 36.294-82.957 82.957-82.957h1052.516c46.663 0 82.957 38.886 82.957 82.957z"></path>
<path fill="#b5396d" d="M274.795 137.397c0 75.883-61.515 137.397-137.397 137.397s-137.397-61.515-137.397-137.397c0-75.883 61.515-137.397 137.397-137.397s137.397 61.515 137.397 137.397z"></path>
<path fill="#b5396d" d="M1607.291 513.296c0 46.663-36.294 82.957-82.957 82.957 0 0 0 0 0 0h-1052.516c-46.663 0-82.957-38.886-82.957-82.957v0c0-46.663 36.294-82.957 82.957-82.957v0h1052.516c46.663 0 82.957 36.294 82.957 82.957v0z"></path>
<path fill="#b5396d" d="M274.795 513.296c0 75.883-61.515 137.397-137.397 137.397s-137.397-61.515-137.397-137.397c0-75.883 61.515-137.397 137.397-137.397s137.397 61.515 137.397 137.397z"></path>
<path fill="#b5396d" d="M1607.291 886.603c0 46.663-36.294 82.957-82.957 82.957h-1052.516c-46.663 0-82.957-38.886-82.957-82.957v0c0-46.663 36.294-82.957 82.957-82.957h1052.516c46.663 0 82.957 36.294 82.957 82.957z"></path>
<path fill="#b5396d" d="M274.795 886.603c0 75.883-61.515 137.397-137.397 137.397s-137.397-61.515-137.397-137.397c0-75.883 61.515-137.397 137.397-137.397s137.397 61.515 137.397 137.397z"></path>
</svg>
